# xmcd
#
# Track frame offsets:
#	182
#	17045
#	37927
#	56930
#	74660
#	90830
#	109230
#	126702
#	141362
#	159917
#
# Disc length: 2386 seconds
#
# Revision: 0
# Processed by: cddbd v1.4PL0 Copyright (c) Steve Scherf et al.
# Submitted via: dBpowerAMP V4.0
#
DISCID=8d09500a
DTITLE=Kenny Rogers - Hearts On Fire
DYEAR=1900
DGENRE=Country
TTITLE0=Crazy
TTITLE1=You And I
TTITLE2=Buried Treasure
TTITLE3=Didn't We?
TTITLE4=Don't Look In My Eyes
TTITLE5=Tomb Of The Unknown Love
TTITLE6=Somebody Took My Love
TTITLE7=You Can't Say (You Don't Love Me Anymore)
TTITLE8=I Don't Call Him Daddy
TTITLE9=Just The Thought Of losing You
EXTD=
EXTT0=
EXTT1=
EXTT2=
EXTT3=
EXTT4=
EXTT5=
EXTT6=
EXTT7=
EXTT8=
EXTT9=
PLAYORDER=
